<svg width="2008" height="1508" viewBox="0 0 2008 1508" fill="none" xmlns="http://www.w3.org/2000/svg">
<g clip-path="url(#clip0_225_100)" filter="url(#filter0_d_225_100)">
<rect width="2000" height="1500" transform="translate(4)" fill="black"/>
<path d="M2004 -2.65583e-07L4 0L4 1500L2004 1500L2004 -2.65583e-07Z" fill="#2C2053" fill-opacity="0.22"/>
<path d="M1064 3810C2720.85 3810 4064 2466.85 4064 810C4064 -846.854 2720.85 -2190 1064 -2190C-592.854 -2190 -1936 -846.854 -1936 810C-1936 2466.85 -592.854 3810 1064 3810Z" fill="url(#paint0_radial_225_100)"/>
<g opacity="0.5">
<path d="M1064 2810C2168.57 2810 3064 1914.57 3064 810C3064 -294.569 2168.57 -1190 1064 -1190C-40.5695 -1190 -936 -294.569 -936 810C-936 1914.57 -40.5695 2810 1064 2810Z" fill="url(#paint1_radial_225_100)"/>
<path d="M1064 2610C2058.11 2610 2864 1804.11 2864 810C2864 -184.113 2058.11 -990 1064 -990C69.8875 -990 -736 -184.113 -736 810C-736 1804.11 69.8875 2610 1064 2610Z" fill="url(#paint2_radial_225_100)"/>
<path d="M1064 2510C2002.88 2510 2764 1748.88 2764 810C2764 -128.884 2002.88 -890 1064 -890C125.116 -890 -636 -128.884 -636 810C-636 1748.88 125.116 2510 1064 2510Z" fill="url(#paint3_radial_225_100)"/>
<path d="M1064 2461C1975.82 2461 2715 1721.82 2715 810C2715 -101.822 1975.82 -841 1064 -841C152.178 -841 -587 -101.822 -587 810C-587 1721.82 152.178 2461 1064 2461Z" fill="url(#paint4_radial_225_100)"/>
<path d="M1064 2260C1864.81 2260 2514 1610.81 2514 810C2514 9.18713 1864.81 -640 1064 -640C263.187 -640 -386 9.18713 -386 810C-386 1610.81 263.187 2260 1064 2260Z" fill="url(#paint5_radial_225_100)"/>
<path d="M1064 2060C1754.36 2060 2314 1500.36 2314 810C2314 119.644 1754.36 -440 1064 -440C373.644 -440 -186 119.644 -186 810C-186 1500.36 373.644 2060 1064 2060Z" fill="url(#paint6_radial_225_100)"/>
<path d="M1064 1985C1712.93 1985 2239 1458.93 2239 810C2239 161.065 1712.93 -365 1064 -365C415.065 -365 -111 161.065 -111 810C-111 1458.93 415.065 1985 1064 1985Z" fill="url(#paint7_radial_225_100)"/>
<path d="M1064 1710C1561.06 1710 1964 1307.06 1964 810C1964 312.944 1561.06 -90 1064 -90C566.944 -90 164 312.944 164 810C164 1307.06 566.944 1710 1064 1710Z" fill="url(#paint8_radial_225_100)"/>
<path d="M1064 1560C1478.21 1560 1814 1224.21 1814 810C1814 395.786 1478.21 60 1064 60C649.786 60 314 395.786 314 810C314 1224.21 649.786 1560 1064 1560Z" fill="url(#paint9_radial_225_100)"/>
<path d="M1064 1310C1340.14 1310 1564 1086.14 1564 810C1564 533.858 1340.14 310 1064 310C787.858 310 564 533.858 564 810C564 1086.14 787.858 1310 1064 1310Z" fill="url(#paint10_radial_225_100)"/>
<path d="M1064 1190C1273.87 1190 1444 1019.87 1444 810C1444 600.132 1273.87 430 1064 430C854.132 430 684 600.132 684 810C684 1019.87 854.132 1190 1064 1190Z" fill="url(#paint11_radial_225_100)"/>
<path d="M1064 1060C1202.07 1060 1314 948.071 1314 810C1314 671.929 1202.07 560 1064 560C925.929 560 814 671.929 814 810C814 948.071 925.929 1060 1064 1060Z" fill="url(#paint12_radial_225_100)"/>
</g>
<path d="M1121.76 986.811C1110.37 990.269 1098.65 992.643 1086.84 993.876C1075.03 995.099 1063.13 995.177 1051.35 994.113C1039.57 993.05 1027.93 990.84 1016.62 987.561C1005.31 984.272 994.348 979.909 983.918 974.549C973.487 969.19 963.592 962.843 954.406 955.639C945.216 948.423 936.746 940.344 929.148 931.54C921.551 922.735 914.814 913.209 909.073 903.154C903.324 893.077 898.574 882.482 894.855 871.564C899.036 882.314 904.227 892.646 910.358 902.367C916.477 912.093 923.532 921.197 931.375 929.516C939.221 937.847 947.855 945.393 957.101 952.027C966.352 958.672 976.23 964.411 986.533 969.141C996.84 973.881 1007.59 977.619 1018.55 980.296C1029.52 982.98 1040.72 984.598 1051.96 985.119C1063.2 985.64 1074.45 985.082 1085.53 983.45C1096.6 981.819 1107.49 979.107 1118.02 975.403C1121.15 974.304 1124.46 976.02 1125.56 979.145C1126.66 982.269 1125.14 985.621 1122 986.724C1121.92 986.753 1121.85 986.778 1121.77 986.795L1121.76 986.811Z" fill="url(#paint13_linear_225_100)" fill-opacity="0.3"/>
<path d="M1351.62 925.669C1343.83 943.925 1334.31 961.424 1323.23 977.825C1312.14 994.218 1299.49 1009.49 1285.51 1023.39C1271.54 1037.29 1256.24 1049.79 1239.94 1060.72C1223.62 1071.63 1206.31 1080.95 1188.29 1088.53C1170.28 1096.1 1151.57 1101.94 1132.53 1105.95C1113.47 1109.95 1094.09 1112.11 1074.71 1112.38C1055.33 1112.65 1035.95 1111.04 1016.96 1107.6C997.933 1104.14 979.318 1098.86 961.394 1091.91C979.599 1098.09 998.35 1102.53 1017.33 1105.12C1036.3 1107.72 1055.48 1108.47 1074.51 1107.37C1093.55 1106.27 1112.43 1103.34 1130.81 1098.64C1149.2 1093.95 1167.11 1087.48 1184.19 1079.39C1201.28 1071.31 1217.57 1061.6 1232.73 1050.47C1247.91 1039.33 1261.98 1026.77 1274.68 1012.98C1287.38 999.192 1298.73 984.228 1308.51 968.337C1318.3 952.445 1326.5 935.637 1333.05 918.227C1334.99 913.061 1340.74 910.662 1345.91 912.606C1351.07 914.55 1353.72 920.089 1351.77 925.275C1351.72 925.406 1351.68 925.519 1351.61 925.644L1351.62 925.669Z" fill="url(#paint14_linear_225_100)" fill-opacity="0.3"/>
<path d="M1303.07 1114.98C1283.22 1129.87 1261.98 1142.87 1239.74 1153.7C1217.48 1164.51 1194.24 1173.14 1170.43 1179.45C1146.61 1185.76 1122.24 1189.73 1097.76 1191.37C1073.28 1192.99 1048.71 1192.26 1024.47 1189.2C1000.23 1186.14 976.339 1180.76 953.222 1173.21C930.089 1165.63 907.751 1155.85 886.604 1144.02C865.457 1132.2 845.481 1118.35 827.077 1102.76C808.641 1087.13 791.793 1069.77 776.733 1051.05C792.578 1069.11 810.102 1085.64 829.031 1100.3C847.941 1114.98 868.24 1127.78 889.521 1138.48C910.818 1149.2 933.097 1157.82 955.925 1164.21C978.769 1170.63 1002.2 1174.83 1025.74 1176.75C1049.29 1178.68 1073 1178.34 1096.36 1175.77C1119.76 1173.21 1142.84 1168.39 1165.21 1161.41C1187.58 1154.42 1209.21 1145.31 1229.73 1134.22C1250.26 1123.14 1269.64 1110.07 1287.61 1095.32C1292.95 1090.94 1300.67 1091.93 1305.05 1097.27C1309.42 1102.6 1308.82 1110.25 1303.47 1114.64C1303.34 1114.76 1303.22 1114.85 1303.07 1114.95L1303.07 1114.98Z" fill="url(#paint15_linear_225_100)" fill-opacity="0.3"/>
<path d="M1524.39 744.54C1527.95 774.1 1528.71 803.972 1526.62 833.585C1524.5 863.202 1519.53 892.532 1511.8 921.068C1504.07 949.604 1493.57 977.318 1480.59 1003.73C1467.58 1030.15 1452.08 1055.25 1434.36 1078.6C1416.63 1101.95 1396.71 1123.56 1374.99 1143.05C1353.23 1162.54 1329.67 1179.89 1304.69 1194.77C1279.72 1209.65 1253.34 1222.1 1226.09 1231.87C1198.78 1241.65 1170.64 1248.75 1142.14 1253.16C1170.42 1247.54 1198.11 1239.24 1224.71 1228.37C1251.31 1217.52 1276.79 1204.11 1300.68 1188.41C1324.59 1172.71 1346.92 1154.73 1367.27 1134.84C1387.64 1114.95 1406.06 1093.12 1422.18 1069.81C1438.32 1046.49 1452.19 1021.66 1463.54 995.834C1474.91 969.976 1483.76 943.102 1489.92 915.665C1496.08 888.229 1499.59 860.285 1500.38 832.302C1501.18 804.319 1499.23 776.332 1494.68 748.804C1493.33 740.634 1498.99 733.207 1507.16 731.858C1515.33 730.509 1522.92 735.72 1524.28 743.92C1524.31 744.126 1524.35 744.304 1524.35 744.516L1524.39 744.54Z" fill="url(#paint16_linear_225_100)" fill-opacity="0.3"/>
<path d="M1653.37 617.452C1664.9 655.44 1672.81 694.489 1676.92 733.856C1681 773.238 1681.26 812.9 1677.71 852.161C1674.17 891.421 1666.8 930.242 1655.87 967.933C1644.9 1005.64 1630.36 1042.17 1612.5 1076.94C1594.63 1111.71 1573.48 1144.69 1549.46 1175.31C1525.41 1205.95 1498.48 1234.18 1469.13 1259.5C1439.78 1284.83 1408.03 1307.28 1374.51 1326.42C1340.92 1345.59 1305.61 1361.42 1269.21 1373.82C1305.05 1359.88 1339.49 1342.58 1371.89 1322.14C1404.31 1301.74 1434.66 1278.23 1462.39 1252.08C1490.16 1225.93 1515.31 1197.15 1537.42 1166.33C1559.57 1135.49 1578.7 1102.56 1594.47 1068.22C1610.27 1033.86 1622.73 998.043 1631.65 961.508C1640.6 924.922 1645.99 887.585 1647.73 850.133C1649.46 812.681 1647.6 775.175 1642.17 738.248C1636.73 701.321 1627.69 665.023 1615.34 629.93C1611.68 619.515 1617.4 608.451 1627.82 604.788C1638.23 601.125 1649.4 606.21 1653.08 616.663C1653.18 616.926 1653.26 617.151 1653.32 617.428L1653.37 617.452Z" fill="url(#paint17_linear_225_100)" fill-opacity="0.3"/>
<path d="M1721.92 1219.64C1694.81 1261.2 1663.78 1300.16 1629.38 1335.73C1594.95 1371.27 1557.18 1403.39 1516.74 1431.54C1476.29 1459.69 1433.2 1483.83 1388.33 1503.65C1343.41 1523.44 1296.75 1538.87 1249.1 1549.7C1201.45 1560.53 1152.87 1566.77 1104.25 1568.38C1055.59 1569.96 1006.92 1566.86 959.091 1559.11C911.26 1551.35 864.244 1538.99 818.989 1522.27C773.648 1505.5 730.112 1484.41 689 1459.52C731.137 1482.63 775.377 1501.71 820.982 1516.32C866.562 1530.97 913.464 1541.14 960.778 1546.69C1008.13 1552.26 1055.9 1553.22 1103.18 1549.63C1150.51 1546.07 1197.41 1537.93 1242.96 1525.43C1288.56 1512.96 1332.87 1496.11 1375.02 1475.29C1417.24 1454.46 1457.33 1429.63 1494.59 1401.2C1531.84 1372.77 1566.26 1340.85 1597.25 1305.98C1628.25 1271.1 1655.74 1233.28 1679.42 1193.26C1686.45 1181.38 1701.64 1177.97 1713.52 1185C1725.4 1192.03 1729.5 1206.81 1722.45 1218.73C1722.27 1219.04 1722.12 1219.3 1721.9 1219.58L1721.92 1219.64Z" fill="url(#paint18_linear_225_100)" fill-opacity="0.3"/>
<path d="M1352.82 1694.05C1295.84 1711.34 1237.27 1723.21 1178.21 1729.38C1119.14 1735.49 1059.65 1735.89 1000.76 1730.57C941.868 1725.25 883.637 1714.2 827.101 1697.81C770.544 1681.36 715.739 1659.55 663.588 1632.75C611.437 1605.95 561.96 1574.22 516.03 1538.19C470.078 1502.11 427.73 1461.72 389.742 1417.7C351.755 1373.68 318.072 1326.04 289.366 1275.77C260.62 1225.38 236.87 1172.41 218.277 1117.82C239.181 1171.57 265.135 1223.23 295.788 1271.84C326.385 1320.46 361.661 1365.98 400.873 1407.58C440.106 1449.24 483.274 1486.97 529.506 1520.13C575.759 1553.36 625.153 1582.06 676.667 1605.7C728.202 1629.41 781.935 1648.1 836.737 1661.48C891.617 1674.9 947.622 1682.99 1003.8 1685.59C1059.98 1688.2 1116.24 1685.41 1171.63 1677.25C1227.02 1669.09 1281.46 1655.53 1334.1 1637.01C1349.73 1631.52 1366.32 1640.1 1371.82 1655.72C1377.31 1671.35 1369.68 1688.11 1354.01 1693.62C1353.61 1693.76 1353.27 1693.89 1352.86 1693.98L1352.82 1694.05Z" fill="url(#paint19_linear_225_100)" fill-opacity="0.3"/>
<path d="M2070.69 1214.84C2043.41 1278.74 2010.09 1339.98 1971.32 1397.39C1932.48 1454.76 1888.22 1508.23 1839.3 1556.87C1790.38 1605.51 1736.84 1649.27 1679.79 1687.5C1622.68 1725.71 1562.09 1758.34 1499.03 1784.85C1435.97 1811.36 1370.5 1831.78 1303.87 1845.82C1237.16 1859.83 1169.3 1867.38 1101.47 1868.32C1033.64 1869.26 965.812 1863.64 899.355 1851.59C832.765 1839.5 767.613 1821 704.879 1796.68C768.595 1818.3 834.226 1833.85 900.655 1842.9C967.06 1852.03 1034.2 1854.64 1100.78 1850.79C1167.43 1846.96 1233.52 1836.68 1297.83 1820.23C1362.21 1803.81 1424.9 1781.18 1484.67 1752.88C1544.5 1724.6 1601.5 1690.59 1654.55 1651.65C1707.7 1612.67 1756.93 1568.68 1801.39 1520.43C1845.85 1472.17 1885.54 1419.8 1919.79 1364.18C1954.04 1308.56 1982.75 1249.73 2005.67 1188.8C2012.48 1170.71 2032.59 1162.32 2050.68 1169.12C2068.76 1175.93 2078.02 1195.31 2071.19 1213.46C2071.02 1213.92 2070.88 1214.32 2070.64 1214.75L2070.69 1214.84Z" fill="url(#paint20_linear_225_100)" fill-opacity="0.3"/>
<path d="M2205.82 200.522C2243.29 274.439 2273.71 351.847 2296.43 431.287C2319.09 510.77 2334 592.213 2340.94 674.209C2347.88 756.206 2346.81 838.684 2338.01 920.129C2329.13 1001.62 2312.48 1082 2288.36 1159.95C2264.23 1237.9 2232.7 1313.38 2194.43 1385.03C2156.08 1456.73 2110.96 1524.53 2059.81 1587.23C2008.65 1649.93 1951.51 1707.6 1889.55 1759.1C1827.44 1810.67 1760.58 1856.02 1690.25 1894.7C1758.87 1853.06 1823.39 1805 1882.6 1751.25C1941.86 1697.56 1995.72 1638.21 2043.25 1574.42C2090.86 1510.58 2132.14 1442.3 2166.42 1370.93C2200.78 1299.51 2228.17 1224.88 2248.13 1148.56C2268.16 1072.2 2280.79 994.043 2285.89 915.7C2291.02 837.244 2288.58 758.531 2278.57 680.908C2268.56 603.286 2251.14 526.856 2226.58 452.913C2202.01 378.97 2170.27 307.627 2132.17 239.958C2120.86 219.875 2128.61 195.056 2148.7 183.75C2168.78 172.444 2193.59 178.848 2204.94 199.004C2205.23 199.51 2205.48 199.944 2205.7 200.492L2205.82 200.522Z" fill="url(#paint21_linear_225_100)" fill-opacity="0.3"/>
<path d="M1924.65 1907.93C1853.2 1961.54 1776.73 2008.32 1696.66 2047.31C1616.53 2086.23 1532.87 2117.3 1447.14 2140.02C1361.4 2162.73 1273.65 2177.03 1185.55 2182.93C1097.4 2188.76 1008.96 2186.14 921.698 2175.12C834.44 2164.1 748.421 2144.75 665.199 2117.54C581.919 2090.26 501.505 2055.05 425.375 2012.49C349.246 1969.93 277.332 1920.07 211.078 1863.93C144.708 1807.66 84.0558 1745.18 29.84 1677.76C86.8825 1742.8 149.968 1802.3 218.112 1855.09C286.187 1907.94 359.263 1954 435.874 1992.52C512.544 2031.1 592.748 2062.14 674.93 2085.17C757.17 2108.27 841.515 2123.38 926.259 2130.29C1011.06 2137.26 1096.39 2136.04 1180.5 2126.79C1264.74 2117.55 1347.83 2100.22 1428.35 2075.07C1508.87 2049.92 1586.74 2017.12 1660.63 1977.21C1734.52 1937.29 1804.31 1890.25 1869.01 1837.14C1888.21 1821.38 1916 1824.96 1931.76 1844.16C1947.52 1863.36 1945.37 1890.9 1926.1 1906.72C1925.62 1907.12 1925.2 1907.47 1924.66 1907.8L1924.65 1907.93Z" fill="url(#paint22_linear_225_100)" fill-opacity="0.3"/>
<path d="M2365.41 1787.4C2301.08 1869.38 2229.03 1945.19 2150.57 2013.3C2072.02 2081.36 1987.13 2141.64 1897.37 2193.13C1807.61 2244.61 1713.04 2287.22 1615.54 2320.47C1517.96 2353.66 1417.5 2377.41 1315.84 2391.34C1214.18 2405.27 1111.41 2409.44 1009.4 2403.91C907.318 2398.31 806.067 2382.91 707.423 2357.94C608.78 2332.96 512.684 2298.49 421.07 2255.23C329.285 2211.86 242.069 2159.76 160.617 2100.16C244.538 2156.24 333.596 2204.24 426.328 2243.15C519 2282.15 615.26 2311.99 713.225 2332.26C811.275 2352.59 911.03 2363.35 1010.6 2364.49C1110.25 2365.69 1209.86 2357.25 1307.45 2339.44C1405.11 2321.69 1500.9 2294.55 1592.89 2258.73C1685.03 2222.88 1773.44 2178.26 1856.59 2125.6C1939.73 2072.95 2017.58 2012.48 2088.8 1945.19C2160.01 1877.89 2224.45 1803.81 2281.32 1724.42C2298.2 1700.86 2330.61 1696.5 2354.16 1713.38C2377.72 1730.26 2383.61 1761.95 2366.67 1785.59C2366.25 1786.19 2365.89 1786.71 2365.38 1787.25L2365.41 1787.4Z" fill="url(#paint23_linear_225_100)" fill-opacity="0.3"/>
<path d="M2812.92 1443.36C2770.01 1554.46 2716.59 1661.39 2653.6 1762.05C2590.5 1862.67 2517.86 1956.92 2436.96 2043.18C2356.07 2129.45 2266.95 2207.62 2171.5 2276.53C2075.94 2345.41 1974.08 2404.93 1867.63 2454.12C1761.18 2503.32 1650.25 2542.22 1536.92 2570.25C1423.47 2598.25 1307.67 2615.25 1191.52 2620.92C1075.36 2626.58 958.818 2621.01 844.239 2604.35C729.431 2587.62 616.703 2559.82 507.769 2521.9C618.224 2555.14 731.596 2577.85 845.947 2589.39C960.26 2601.04 1075.44 2601.5 1189.28 2590.92C1303.23 2580.38 1415.85 2558.8 1525.05 2526.78C1634.37 2494.79 1740.41 2452.28 1841.11 2400.21C1941.93 2348.18 2037.54 2286.51 2126.11 2216.62C2214.84 2146.65 2296.55 2068.35 2369.83 1983.01C2443.11 1897.68 2507.98 1805.58 2563.33 1708.24C2618.68 1610.9 2664.35 1508.4 2699.98 1402.63C2710.55 1371.24 2744.51 1355.65 2775.9 1366.23C2807.29 1376.81 2824.31 1409.47 2813.7 1440.97C2813.44 1441.77 2813.21 1442.45 2812.84 1443.21L2812.92 1443.36Z" fill="url(#paint24_linear_225_100)" fill-opacity="0.3"/>
<path d="M2444.1 -727.733C2540.67 -637.307 2628.57 -537.795 2706.03 -431.032C2783.41 -324.166 2850.26 -210.134 2905.44 -90.9185C2960.62 28.2969 3004.05 152.61 3035.31 279.595C3066.49 406.682 3085.4 536.356 3091.77 666.466C3098.14 796.575 3092.05 927.018 3073.76 1055.41C3055.39 1183.89 3024.71 1310.24 2982.21 1432.23C2939.71 1554.22 2885.48 1671.94 2820.64 1783.02C2755.63 1894.3 2680.09 1998.84 2595.71 2095.25C2675.9 1995.32 2746.47 1888 2805.94 1775.03C2865.51 1662.14 2913.9 1543.71 2950.38 1422.06C2986.94 1300.3 3011.59 1175.33 3024.05 1049.54C3036.59 923.638 3036.94 796.726 3025.21 671.343C3013.57 545.858 2989.84 421.715 2954.71 301.407C2919.57 180.911 2872.93 64.1651 2815.53 -46.8142C2758.14 -157.794 2690.27 -262.937 2613.05 -360.449C2535.83 -457.962 2449.26 -547.654 2355.15 -628.361C2327.22 -652.316 2325.3 -693.78 2349.25 -721.706C2373.21 -749.632 2413.93 -753.573 2441.96 -729.533C2442.67 -728.933 2443.28 -728.419 2443.91 -727.717L2444.1 -727.733Z" fill="url(#paint25_linear_225_100)" fill-opacity="0.3"/>
<path d="M3200.46 112.014C3242.25 249.721 3270.93 391.273 3285.84 533.98C3300.61 676.737 3301.56 820.514 3288.7 962.834C3275.85 1105.15 3249.14 1245.88 3209.53 1382.51C3169.78 1519.18 3117.07 1651.63 3052.3 1777.66C2987.54 1903.69 2910.85 2023.26 2823.8 2134.26C2736.61 2245.31 2638.99 2347.65 2532.6 2439.46C2426.22 2531.26 2311.1 2612.66 2189.61 2682.03C2067.84 2751.5 1939.83 2808.9 1807.89 2853.83C1937.79 2803.31 2062.64 2740.59 2180.1 2666.51C2297.62 2592.57 2407.63 2507.32 2508.15 2412.56C2608.82 2317.74 2700 2213.42 2780.16 2101.69C2860.45 1989.92 2929.8 1870.55 2986.95 1746.05C3044.23 1621.51 3089.4 1491.66 3121.74 1359.22C3154.17 1226.59 3173.73 1091.25 3180.02 955.482C3186.31 819.718 3179.57 683.76 3159.86 549.899C3140.14 416.038 3107.38 284.461 3062.62 157.247C3049.34 119.492 3070.08 79.3851 3107.83 66.1062C3145.59 52.8273 3186.09 71.2614 3199.42 109.153C3199.76 110.107 3200.06 110.924 3200.27 111.928L3200.46 112.014Z" fill="url(#paint26_linear_225_100)" fill-opacity="0.3"/>
<path d="M3365 1735.35C3302.65 1881.4 3226.49 2021.39 3137.88 2152.6C3049.11 2283.74 2947.93 2405.95 2836.12 2517.13C2724.31 2628.32 2601.92 2728.33 2471.53 2815.72C2340.98 2903.06 2202.49 2977.63 2058.35 3038.23C1914.21 3098.82 1764.58 3145.5 1612.26 3177.58C1459.8 3209.6 1304.69 3226.88 1149.65 3229.02C994.609 3231.16 839.571 3218.32 687.668 3190.79C535.464 3163.14 386.544 3120.86 243.152 3065.26C388.788 3114.69 538.803 3150.22 690.64 3170.92C842.422 3191.77 995.877 3197.74 1148.06 3188.94C1300.4 3180.19 1451.47 3156.69 1598.48 3119.1C1745.63 3081.56 1888.91 3029.85 2025.52 2965.15C2162.28 2900.51 2292.56 2822.78 2413.84 2733.77C2535.32 2644.66 2647.85 2544.13 2749.46 2433.83C2851.07 2323.53 2941.81 2203.83 3020.09 2076.69C3098.37 1949.56 3164 1815.1 3216.4 1675.82C3231.95 1634.49 3277.93 1615.29 3319.26 1630.85C3360.59 1646.4 3381.76 1690.71 3366.15 1732.2C3365.76 1733.25 3365.44 1734.15 3364.9 1735.15L3365 1735.35Z" fill="url(#paint27_linear_225_100)" fill-opacity="0.3"/>
<path d="M878.096 803.808C878.744 791.916 880.52 780.096 883.4 768.576C886.292 757.056 890.288 745.848 895.316 735.144C900.344 724.44 906.404 714.252 913.352 704.748C920.312 695.244 928.16 686.436 936.764 678.468C945.368 670.5 954.716 663.372 964.628 657.204C974.552 651.036 985.04 645.84 995.912 641.712C1006.78 637.584 1018.04 634.512 1029.45 632.556C1040.89 630.6 1052.47 629.76 1064 630C1052.47 630.252 1040.98 631.596 1029.75 634.032C1018.52 636.456 1007.55 639.972 997.052 644.496C986.54 649.02 976.496 654.552 967.1 660.972C957.692 667.392 948.92 674.712 940.952 682.776C932.972 690.84 925.784 699.66 919.52 709.044C913.244 718.44 907.892 728.412 903.56 738.792C899.228 749.172 895.904 759.936 893.648 770.904C891.392 781.872 890.216 793.032 890.096 804.192C890.06 807.504 887.312 810.036 884 810C880.688 809.964 878.06 807.384 878.096 804.06C878.096 803.976 878.096 803.904 878.108 803.82L878.096 803.808Z" fill="url(#paint28_linear_225_100)" fill-opacity="0.3"/>
<path d="M856.933 1040.72C842.444 1027.15 829.256 1012.22 817.633 996.201C806.023 980.167 795.995 963.058 787.715 945.171C779.435 927.284 772.92 908.633 768.229 889.58C763.552 870.512 760.714 851.056 759.758 831.535C758.803 812.014 759.717 792.442 762.461 773.18C765.217 753.901 769.819 734.944 776.196 716.641C782.573 698.338 790.71 680.676 800.438 664.01C810.193 647.314 821.526 631.63 834.187 617.163C822.154 632.157 811.567 648.259 802.644 665.209C793.706 682.146 786.445 699.916 780.972 718.168C775.486 736.436 771.789 755.186 769.92 774.06C768.037 792.95 767.986 811.991 769.745 830.803C771.492 849.631 775.052 868.257 780.322 886.308C785.595 904.387 792.593 921.903 801.204 938.554C809.816 955.205 819.998 970.98 831.584 985.611C843.171 1000.24 856.159 1013.7 870.279 1025.81C874.469 1029.4 874.758 1035.62 871.164 1039.81C867.57 1044 861.46 1044.59 857.255 1040.99C857.148 1040.9 857.056 1040.82 856.961 1040.71L856.933 1040.72Z" fill="url(#paint29_linear_225_100)" fill-opacity="0.3"/>
<path d="M695.645 930.342C688.44 906.599 683.495 882.194 680.924 857.589C678.377 832.976 678.214 808.187 680.43 783.649C682.647 759.111 687.251 734.848 694.081 711.292C700.935 687.726 710.022 664.891 721.189 643.161C732.355 621.432 745.577 600.817 760.587 581.679C775.62 562.532 792.45 544.887 810.792 529.059C829.135 513.231 848.982 499.197 869.929 487.236C890.924 475.258 912.995 465.362 935.742 457.615C913.346 466.325 891.821 477.139 871.568 489.912C851.307 502.66 832.34 517.359 815.008 533.697C797.652 550.044 781.931 568.031 768.111 587.294C754.267 606.566 742.31 627.147 732.457 648.611C722.581 670.084 714.794 692.473 709.217 715.307C703.626 738.173 700.254 761.509 699.169 784.917C698.084 808.324 699.247 831.765 702.646 854.845C706.044 877.924 711.694 900.61 719.411 922.543C721.7 929.053 718.125 935.968 711.615 938.257C705.106 940.547 698.123 937.368 695.825 930.835C695.765 930.671 695.713 930.53 695.677 930.357L695.645 930.342Z" fill="url(#paint30_linear_225_100)" fill-opacity="0.3"/>
<path d="M968.05 1265.01C939.053 1258.25 910.723 1248.75 883.611 1236.66C856.504 1224.54 830.645 1209.83 806.474 1192.81C782.303 1175.78 759.851 1156.44 739.468 1135.21C719.091 1113.94 700.812 1090.8 684.93 1066.16C669.048 1041.51 655.557 1015.4 644.674 988.324C633.796 961.213 625.557 933.136 620.113 904.577C614.67 876.017 611.993 846.971 612.131 818.026C612.28 789.021 615.239 760.146 620.837 731.858C616.451 760.36 614.774 789.217 615.896 817.928C616.988 846.633 620.883 875.163 627.462 902.978C634.037 930.823 643.297 957.953 655.024 983.873C666.746 1009.82 680.96 1034.6 697.354 1057.72C713.744 1080.86 732.338 1102.39 752.723 1121.89C773.131 1141.42 795.359 1158.92 819.034 1174.09C842.709 1189.26 867.768 1202.12 893.792 1212.44C919.816 1222.75 946.781 1230.49 974.205 1235.63C982.344 1237.16 987.385 1245.02 985.858 1253.16C984.332 1261.3 976.839 1266.65 968.671 1265.12C968.464 1265.08 968.287 1265.05 968.085 1264.99L968.05 1265.01Z" fill="url(#paint31_linear_225_100)" fill-opacity="0.3"/>
<path d="M1043.36 1429.68C1003.72 1427.52 964.32 1421.6 925.92 1412C887.52 1402.36 850.16 1389.04 814.48 1372.28C778.8 1355.52 744.84 1335.32 713.16 1312.16C681.48 1288.96 652.12 1262.8 625.56 1234.12C599 1205.44 575.24 1174.28 554.68 1141.24C534.12 1108.16 516.8 1073.2 503.04 1036.96C489.28 1000.72 479.04 963.2 472.52 925.16C466 887.04 463.2 848.44 464 810C464.84 848.44 469.32 886.72 477.44 924.16C485.52 961.6 497.24 998.16 512.32 1033.16C527.4 1068.2 545.84 1101.68 567.24 1133C588.64 1164.36 613.04 1193.6 639.92 1220.16C666.8 1246.76 696.2 1270.72 727.48 1291.6C758.8 1312.52 792.04 1330.36 826.64 1344.8C861.24 1359.24 897.12 1370.32 933.68 1377.84C970.24 1385.36 1007.44 1389.28 1044.64 1389.68C1055.68 1389.8 1064.12 1398.96 1064 1410C1063.88 1421.04 1055.28 1429.8 1044.2 1429.68C1043.92 1429.68 1043.68 1429.68 1043.4 1429.64L1043.36 1429.68Z" fill="url(#paint32_linear_225_100)" fill-opacity="0.3"/>
<path d="M454.038 1288.14C424.256 1248.45 398.268 1205.96 376.606 1161.48C354.983 1116.96 337.72 1070.49 325.1 1022.85C312.481 975.222 304.537 926.473 301.259 877.529C298.02 828.553 299.48 779.42 305.602 730.943C311.724 682.466 322.471 634.678 337.589 588.444C352.745 542.177 372.305 497.502 395.95 455.208C419.596 412.914 447.296 372.962 478.483 336.154C509.746 299.282 544.458 265.586 581.909 235.466C545.776 267.157 512.72 302.204 483.394 340.062C454.035 377.881 428.443 418.479 407.046 461.041C385.609 503.635 368.367 548.193 355.571 593.85C342.736 639.539 334.342 686.397 330.507 733.477C326.634 780.589 327.313 827.992 332.453 874.721C337.586 921.521 347.211 967.684 361.184 1012.42C375.158 1057.15 393.377 1100.41 415.552 1141.46C437.726 1182.51 463.862 1221.28 493.369 1257.23C502.124 1267.89 500.134 1283.33 489.467 1292.09C478.799 1300.85 463.501 1299.65 454.713 1288.94C454.488 1288.68 454.295 1288.45 454.108 1288.15L454.038 1288.14Z" fill="url(#paint33_linear_225_100)" fill-opacity="0.3"/>
<path d="M134.48 779.04C137.72 719.58 146.6 660.48 161 602.88C175.46 545.28 195.44 489.24 220.58 435.72C245.72 382.2 276.02 331.26 310.76 283.74C345.56 236.22 384.8 192.18 427.82 152.34C470.84 112.5 517.58 76.8595 567.14 46.0195C616.76 15.1795 669.2 -10.8005 723.56 -31.4405C777.92 -52.0805 834.2 -67.4404 891.26 -77.2204C948.44 -87.0004 1006.34 -91.2005 1064 -90.0005C1006.34 -88.7405 948.92 -82.0205 892.76 -69.8405C836.6 -57.7205 781.76 -40.1404 729.26 -17.5204C676.7 5.09956 626.48 32.7595 579.5 64.8595C532.46 96.9595 488.6 133.56 448.76 173.88C408.86 214.2 372.92 258.3 341.6 305.22C310.22 352.2 283.46 402.06 261.8 453.96C240.14 505.86 223.52 559.68 212.24 614.52C200.96 669.36 195.08 725.16 194.48 780.96C194.3 797.52 180.56 810.18 164 810C147.44 809.82 134.3 796.92 134.48 780.3C134.48 779.88 134.48 779.52 134.54 779.1L134.48 779.04Z" fill="url(#paint34_linear_225_100)" fill-opacity="0.3"/>
<path d="M339.266 1617.51C288.555 1570.03 242.396 1517.77 201.716 1461.7C161.082 1405.59 125.981 1345.7 97.0025 1283.1C68.0237 1220.5 45.2202 1155.22 28.8028 1088.53C12.4305 1021.79 2.49797 953.698 -0.846261 885.374C-4.19049 817.049 -0.991413 748.55 8.61229 681.13C18.261 613.656 34.3679 547.306 56.6872 483.245C79.0064 419.185 107.484 357.367 141.534 299.038C175.674 240.6 215.341 185.705 259.653 135.073C217.539 187.549 180.485 243.906 149.255 303.231C117.971 362.512 92.5571 424.707 73.4023 488.59C54.2025 552.527 41.2618 618.152 34.7189 684.212C28.1311 750.325 27.9498 816.97 34.1078 882.813C40.2207 948.709 52.6816 1013.9 71.1274 1077.08C89.5819 1140.35 114.075 1201.66 144.216 1259.94C174.356 1318.22 209.993 1373.43 250.545 1424.64C291.097 1475.85 336.557 1522.95 385.977 1565.33C400.642 1577.91 401.653 1599.68 389.073 1614.35C376.493 1629.01 355.111 1631.08 340.392 1618.46C340.017 1618.14 339.695 1617.87 339.365 1617.5L339.266 1617.51Z" fill="url(#paint35_linear_225_100)" fill-opacity="0.3"/>
<path d="M1246.2 2091.41C1163.92 2101.34 1080.78 2103.45 998.356 2097.64C915.92 2091.74 834.287 2077.9 754.861 2056.38C675.435 2034.85 598.299 2005.64 524.776 1969.51C451.239 1933.3 381.398 1890.16 316.4 1840.83C251.403 1791.5 191.262 1736.05 137.018 1675.58C82.76 1615.03 34.4811 1549.44 -6.94316 1479.92C-48.3674 1410.41 -83.0193 1336.99 -110.212 1261.15C-137.434 1185.15 -157.182 1106.81 -169.472 1027.49C-153.811 1106.21 -130.725 1183.29 -100.46 1257.31C-70.2778 1331.35 -32.9313 1402.26 10.7571 1468.75C54.4601 1535.32 104.505 1597.46 159.852 1654.09C215.213 1710.8 275.974 1762.07 340.861 1806.93C405.763 1851.87 474.888 1890.47 546.762 1922.05C618.733 1953.71 693.534 1978.33 769.898 1995.47C846.263 2012.62 924.041 2022.39 1001.93 2024.6C1079.81 2026.8 1157.71 2021.38 1234.33 2008.72C1257.07 2004.96 1277.74 2020.73 1281.49 2043.47C1285.25 2066.21 1270.75 2087.34 1247.92 2091.11C1247.35 2091.21 1246.85 2091.29 1246.26 2091.31L1246.2 2091.41Z" fill="url(#paint36_linear_225_100)" fill-opacity="0.3"/>
<path d="M-262.078 1243.23C-288.016 1157.76 -305.819 1069.9 -315.073 981.322C-324.241 892.714 -324.829 803.474 -316.85 715.137C-308.872 626.801 -292.297 539.455 -267.708 454.651C-243.036 369.816 -210.319 287.609 -170.12 209.382C-129.921 131.155 -82.3232 56.9403 -28.2884 -11.9557C25.8311 -80.8824 86.4188 -144.406 152.452 -201.387C218.486 -258.368 289.935 -308.892 365.346 -351.951C440.926 -395.071 520.383 -430.695 602.273 -458.585C521.645 -427.228 444.157 -388.298 371.246 -342.318C298.304 -296.422 230.024 -243.508 167.628 -184.69C105.148 -125.842 48.5509 -61.0894 -1.20097 8.259C-51.0374 77.6381 -94.0829 151.729 -129.554 229.001C-165.109 306.303 -193.143 386.902 -213.218 469.106C-233.348 551.425 -245.487 635.433 -249.391 719.7C-253.296 803.968 -249.111 888.356 -236.876 971.442C-224.641 1054.53 -204.302 1136.2 -176.521 1215.16C-168.279 1238.59 -181.151 1263.48 -204.585 1271.73C-228.019 1279.97 -253.159 1268.53 -261.432 1245.01C-261.647 1244.42 -261.832 1243.91 -261.963 1243.29L-262.078 1243.23Z" fill="url(#paint37_linear_225_100)" fill-opacity="0.3"/>
<path d="M-299.559 1698.63C-354.597 1610.14 -401.19 1516.51 -438.364 1419.48C-475.452 1322.4 -503.061 1222.01 -520.743 1120.05C-538.426 1018.1 -546.122 914.66 -544.02 811.669C-541.832 708.617 -529.787 606.098 -508.107 505.805C-486.427 405.512 -455.198 307.506 -415.109 213.55C-374.934 119.533 -325.838 29.6536 -268.629 -54.4985C-211.421 -138.651 -146.16 -217.161 -74.1807 -288.455C-2.02899 -359.87 76.7558 -424.008 160.617 -480.165C79.225 -420.482 3.65777 -353.213 -64.6227 -279.382C-132.963 -205.636 -193.931 -125.389 -246.486 -40.2653C-299.127 44.9184 -343.354 134.978 -378.48 228.151C-413.692 321.383 -439.828 417.875 -456.468 515.664C-473.194 613.513 -480.448 712.807 -478.25 811.505C-476.077 910.349 -464.39 1008.69 -443.345 1104.83C-422.3 1200.97 -392.103 1294.8 -353.227 1384.74C-314.351 1474.67 -266.77 1560.57 -211.62 1641.16C-195.256 1665.08 -202.245 1697.02 -226.165 1713.38C-250.084 1729.75 -281.869 1724.44 -298.294 1700.44C-298.715 1699.84 -299.077 1699.32 -299.412 1698.66L-299.559 1698.63Z" fill="url(#paint38_linear_225_100)" fill-opacity="0.3"/>
<path d="M-129.333 2236.82C-219.054 2158.5 -301.262 2071.73 -374.31 1978.12C-447.284 1884.4 -511.002 1783.91 -564.396 1678.39C-617.789 1572.87 -660.762 1462.39 -692.879 1349.13C-724.921 1235.77 -746.012 1119.7 -755.829 1002.84C-765.647 885.985 -764.264 768.437 -751.844 652.355C-739.35 536.179 -715.725 421.543 -681.319 310.456C-646.914 199.369 -601.822 91.7573 -546.977 -10.2128C-491.983 -112.372 -427.309 -208.795 -354.419 -298.191C-423.432 -205.766 -483.543 -106.997 -533.499 -3.48969C-583.548 99.9433 -623.368 208.019 -652.362 318.613C-681.431 429.301 -699.675 542.507 -706.933 656.074C-714.264 769.735 -710.587 883.926 -696.098 996.362C-681.682 1108.89 -656.434 1219.84 -621.052 1326.97C-585.649 1434.27 -540.019 1537.84 -484.894 1635.88C-429.769 1733.93 -365.412 1826.39 -292.872 1911.69C-220.333 1997 -139.631 2074.97 -52.4275 2144.62C-26.5502 2165.3 -23.5162 2202.54 -44.1906 2228.42C-64.865 2254.3 -101.375 2259.12 -127.347 2238.37C-128.009 2237.86 -128.576 2237.41 -129.164 2236.8L-129.333 2236.82Z" fill="url(#paint39_linear_225_100)" fill-opacity="0.3"/>
<path d="M2036.97 2632.81C1918.97 2692.62 1795.4 2741.19 1668.58 2777.47C1541.69 2813.63 1411.68 2837.44 1280.78 2848.52C1149.88 2859.6 1018.21 2857.89 888.189 2843.84C758.103 2829.67 629.78 2803.09 505.339 2764.57C380.898 2726.06 260.406 2675.72 146.016 2614.62C31.5596 2553.41 -76.6785 2481.37 -176.775 2399.71C-276.872 2318.05 -368.942 2226.83 -451.143 2127.91C-533.478 2028.76 -605.876 1922.02 -667.618 1809.75C-601.143 1919.29 -524.43 2022.3 -438.611 2116.82C-352.907 2211.41 -258.165 2297.4 -156.324 2373.28C-54.4177 2449.28 54.5866 2515.18 168.535 2569.91C282.549 2624.76 401.69 2668.49 523.522 2700.36C645.42 2732.34 770.193 2752.5 895.259 2760.64C1020.51 2768.83 1146.17 2764.93 1270.08 2748.95C1394 2732.97 1516.01 2705.16 1634.06 2665.95C1752.1 2626.73 1865.99 2576.06 1974.02 2515.23C2006.08 2497.18 2045.7 2509.56 2063.75 2541.62C2081.8 2573.68 2071.58 2613.29 2039.4 2631.41C2038.59 2631.87 2037.9 2632.27 2037.02 2632.62L2036.97 2632.81Z" fill="url(#paint40_linear_225_100)" fill-opacity="0.3"/>
<path d="M989.18 3056.34C845.485 3048.51 702.66 3027.05 563.46 2992.25C424.26 2957.3 288.83 2909.02 159.49 2848.26C30.1498 2787.51 -92.9552 2714.28 -207.795 2630.33C-322.635 2546.23 -429.065 2451.4 -525.345 2347.43C-621.625 2243.47 -707.755 2130.51 -782.285 2010.74C-856.815 1890.83 -919.6 1764.1 -969.48 1632.73C-1019.36 1501.36 -1056.48 1365.35 -1080.12 1227.45C-1103.75 1089.27 -1113.9 949.345 -1111 810C-1107.96 949.345 -1091.72 1088.11 -1062.28 1223.83C-1032.99 1359.55 -990.505 1492.08 -935.84 1618.95C-881.175 1745.97 -814.33 1867.34 -736.755 1980.87C-659.18 2094.55 -570.73 2200.55 -473.29 2296.83C-375.85 2393.25 -269.275 2480.11 -155.885 2555.8C-42.3502 2631.63 78.1447 2696.3 203.57 2748.65C328.995 2800.99 459.06 2841.16 591.59 2868.42C724.12 2895.68 858.97 2909.89 993.82 2911.34C1033.84 2911.77 1064.43 2944.98 1064 2985C1063.56 3025.02 1032.39 3056.77 992.225 3056.34C991.21 3056.34 990.34 3056.34 989.325 3056.19L989.18 3056.34Z" fill="url(#paint41_linear_225_100)" fill-opacity="0.3"/>
<path d="M-592.535 2655.74C-708.445 2547.2 -813.953 2427.76 -906.934 2299.61C-999.813 2171.34 -1080.04 2034.47 -1146.28 1891.37C-1212.52 1748.28 -1264.64 1599.07 -1302.16 1446.64C-1339.59 1294.1 -1362.29 1138.45 -1369.93 982.284C-1377.58 826.113 -1370.27 669.543 -1348.31 515.44C-1326.26 361.214 -1289.44 209.558 -1238.43 63.133C-1187.41 -83.2918 -1122.32 -224.588 -1044.49 -357.913C-966.459 -491.484 -875.793 -616.96 -774.506 -732.69C-870.767 -612.744 -955.464 -483.928 -1026.85 -348.328C-1098.35 -212.83 -1156.44 -70.6697 -1200.22 75.3495C-1244.11 221.491 -1273.69 371.492 -1288.64 522.484C-1303.7 673.6 -1304.11 825.932 -1290.04 976.429C-1276.07 1127.05 -1247.58 1276.06 -1205.42 1420.46C-1163.24 1565.1 -1107.26 1705.23 -1038.36 1838.43C-969.471 1971.64 -888.017 2097.85 -795.326 2214.89C-702.634 2331.93 -598.726 2439.59 -485.767 2536.46C-452.247 2565.22 -449.937 2614.99 -478.69 2648.51C-507.443 2682.03 -556.319 2686.76 -589.961 2657.9C-590.819 2657.18 -591.554 2656.56 -592.31 2655.72L-592.535 2655.74Z" fill="url(#paint42_linear_225_100)" fill-opacity="0.3"/>
<path d="M1162.31 652.098C1172.29 658.605 1181.64 666.053 1190.17 674.308C1198.7 682.572 1206.41 691.637 1213.17 701.343C1219.92 711.049 1225.72 721.392 1230.47 732.161C1235.23 742.94 1238.93 754.141 1241.53 765.576C1244.13 777.011 1245.63 788.671 1246.01 800.339C1246.39 812.017 1245.65 823.698 1243.79 835.178C1241.92 846.657 1238.96 857.941 1234.94 868.802C1230.92 879.684 1225.86 890.133 1219.88 900C1225.43 889.887 1230.01 879.269 1233.52 868.324C1237.03 857.385 1239.47 846.128 1240.8 834.773C1242.14 823.407 1242.37 811.943 1241.51 800.596C1240.66 789.238 1238.7 777.981 1235.7 767.049C1232.71 756.106 1228.67 745.471 1223.67 735.354C1218.67 725.221 1212.71 715.6 1205.89 706.659C1199.06 697.717 1191.4 689.456 1183.03 682.019C1174.66 674.581 1165.59 667.982 1155.98 662.298C1153.13 660.611 1152.31 656.965 1154 654.115C1155.69 651.265 1159.24 650.279 1162.1 651.972C1162.17 652.014 1162.23 652.05 1162.3 652.103L1162.31 652.098Z" fill="url(#paint43_linear_225_100)" fill-opacity="0.3"/>
<path d="M967.726 515.316C986.72 509.552 1006.24 505.596 1025.93 503.539C1045.62 501.502 1065.45 501.371 1085.08 503.144C1104.71 504.917 1124.12 508.601 1142.97 514.065C1161.82 519.547 1180.09 526.818 1197.47 535.751C1214.85 544.684 1231.35 555.261 1246.66 567.269C1261.97 579.296 1276.09 592.76 1288.75 607.434C1301.41 622.108 1312.64 637.985 1322.21 654.743C1331.79 671.539 1339.71 689.196 1345.91 707.394C1338.94 689.477 1330.29 672.257 1320.07 656.054C1309.87 639.845 1298.11 624.672 1285.04 610.806C1271.96 596.921 1257.57 584.344 1242.16 573.288C1226.75 562.214 1210.28 552.648 1193.11 544.766C1175.93 536.865 1158.02 530.635 1139.75 526.174C1121.46 521.7 1102.79 519.003 1084.07 518.135C1065.34 517.267 1046.59 518.197 1028.12 520.916C1009.66 523.635 991.511 528.155 973.965 534.329C968.757 536.16 963.225 533.3 961.394 528.092C959.562 522.884 962.105 517.298 967.331 515.459C967.463 515.412 967.575 515.371 967.714 515.341L967.726 515.316Z" fill="url(#paint44_linear_225_100)" fill-opacity="0.3"/>
<path d="M1143.96 430.824C1168.12 436.455 1191.73 444.375 1214.32 454.452C1236.91 464.553 1258.46 476.806 1278.6 490.994C1298.75 505.182 1317.46 521.301 1334.44 538.994C1351.42 556.712 1366.66 576 1379.89 596.536C1393.13 617.071 1404.37 638.829 1413.44 661.396C1422.5 683.989 1429.37 707.386 1433.91 731.186C1438.44 754.985 1440.67 779.19 1440.56 803.312C1440.43 827.482 1437.97 851.545 1433.3 875.118C1436.96 851.367 1438.35 827.319 1437.42 803.393C1436.51 779.472 1433.26 755.697 1427.78 732.517C1422.3 709.314 1414.59 686.705 1404.81 665.105C1395.04 643.48 1383.2 622.835 1369.54 603.57C1355.88 584.28 1340.38 566.342 1323.4 550.095C1306.39 533.82 1287.87 519.231 1268.14 506.588C1248.41 493.945 1227.53 483.231 1205.84 474.635C1184.15 466.039 1161.68 459.588 1138.83 455.305C1132.05 454.033 1127.85 447.479 1129.12 440.697C1130.39 433.915 1136.63 429.456 1143.44 430.733C1143.61 430.763 1143.76 430.789 1143.93 430.844L1143.96 430.824Z" fill="url(#paint45_linear_225_100)" fill-opacity="0.3"/>
<path d="M717.923 499.399C738.274 477.666 760.67 457.884 784.698 440.45C808.748 423.035 834.412 407.992 861.242 395.572C888.073 383.153 916.05 373.38 944.629 366.344C973.23 359.327 1002.41 355.07 1031.7 353.637C1060.98 352.204 1090.34 353.575 1119.23 357.691C1148.15 361.826 1176.58 368.729 1204.04 378.294C1231.49 387.86 1257.98 400.064 1282.98 414.657C1308.03 429.289 1331.55 446.289 1353.25 465.28C1330.76 447.231 1306.61 431.35 1281.19 417.966C1255.78 404.559 1229.13 393.667 1201.75 385.458C1174.34 377.229 1146.22 371.683 1117.91 368.879C1089.57 366.056 1061.01 365.978 1032.79 368.617C1004.55 371.237 976.614 376.578 949.538 384.483C922.419 392.392 896.145 402.889 871.168 415.806C846.192 428.724 822.528 443.997 800.583 461.376C778.637 478.756 758.451 498.239 740.287 519.418C734.896 525.703 725.565 526.137 719.28 520.745C712.995 515.354 712.108 506.19 717.518 499.882C717.653 499.721 717.769 499.583 717.927 499.442L717.923 499.399Z" fill="url(#paint46_linear_225_100)" fill-opacity="0.3"/>
<path d="M537.661 482.285C559.352 449.036 584.179 417.874 611.692 389.419C639.241 360.984 669.456 335.289 701.811 312.769C734.165 290.249 768.639 270.939 804.536 255.084C840.468 239.248 877.803 226.901 915.921 218.24C954.039 209.578 992.904 204.581 1031.8 203.296C1070.73 202.03 1109.66 204.511 1147.93 210.714C1186.19 216.918 1223.8 226.81 1260.01 240.183C1296.28 253.597 1331.11 270.472 1364 290.385C1330.29 271.892 1294.9 256.632 1258.41 244.944C1221.95 233.222 1184.43 225.091 1146.58 220.651C1108.69 216.191 1070.48 215.42 1032.65 218.293C994.795 221.146 957.272 227.657 920.831 237.656C884.354 247.635 848.904 261.116 815.182 277.765C781.405 294.429 749.335 314.296 719.529 337.04C689.724 359.785 662.188 385.318 637.396 413.219C612.603 441.121 590.608 471.378 571.662 503.394C566.038 512.895 553.885 515.624 544.384 510C534.883 504.376 531.597 492.548 537.241 483.013C537.381 482.77 537.501 482.562 537.676 482.34L537.661 482.285Z" fill="url(#paint47_linear_225_100)" fill-opacity="0.3"/>
<path d="M954.9 42.6876C1004.17 36.7423 1053.95 35.4777 1103.31 38.9602C1152.67 42.4921 1201.55 50.7798 1249.11 63.6668C1296.67 76.5538 1342.86 94.0488 1386.89 115.682C1430.92 137.365 1472.74 163.196 1511.66 192.736C1550.58 222.276 1586.6 255.477 1619.08 291.687C1651.57 327.946 1680.48 367.223 1705.28 408.848C1730.09 450.473 1750.84 494.438 1767.12 539.85C1783.42 585.361 1795.25 632.27 1802.61 679.764C1793.23 632.626 1779.4 586.475 1761.28 542.149C1743.21 497.814 1720.84 455.352 1694.68 415.54C1668.51 375.679 1638.55 338.467 1605.41 304.557C1572.25 270.597 1535.87 239.899 1497.02 213.038C1458.15 186.128 1416.76 163.014 1373.72 144.1C1330.63 125.146 1285.84 110.4 1240.11 100.134C1194.38 89.8688 1147.81 84.0174 1101.17 82.6959C1054.53 81.3745 1007.89 84.6235 962.006 92.2058C948.39 94.4544 936.012 85.0103 933.763 71.3939C931.515 57.7775 940.2 45.1272 953.866 42.8699C954.21 42.8091 954.506 42.757 954.859 42.7455L954.9 42.6876Z" fill="url(#paint48_linear_225_100)" fill-opacity="0.3"/>
<path d="M1555.57 20.4921C1605.45 53.028 1652.19 90.2683 1694.87 131.539C1737.52 172.862 1776.07 218.185 1809.85 266.717C1843.63 315.249 1872.59 366.959 1896.37 420.805C1920.13 474.703 1938.65 530.706 1951.64 587.882C1964.63 645.058 1972.13 703.356 1974.06 761.697C1975.95 820.089 1972.23 878.493 1962.93 935.89C1953.62 993.287 1938.79 1049.71 1918.72 1104.01C1898.6 1158.42 1873.29 1210.66 1843.42 1260C1871.16 1209.43 1894.05 1156.35 1911.58 1101.62C1929.17 1046.93 1941.36 990.643 1948.02 933.867C1954.71 877.038 1955.87 819.717 1951.56 762.981C1947.28 706.193 1937.51 649.909 1922.52 595.247C1907.55 540.532 1887.33 487.357 1862.35 436.773C1837.36 386.107 1807.56 338.003 1773.44 293.294C1739.32 248.586 1701.02 207.283 1659.17 170.094C1617.32 132.905 1571.93 99.9133 1523.91 71.4936C1509.66 63.0578 1505.56 44.8285 1514 30.5772C1522.44 16.3258 1540.18 11.3962 1554.48 19.8621C1554.84 20.0721 1555.16 20.2521 1555.49 20.5141L1555.57 20.4921Z" fill="url(#paint49_linear_225_100)" fill-opacity="0.3"/>
<path d="M727.041 -221.394C793.52 -241.568 861.855 -255.415 930.749 -262.612C999.666 -269.743 1069.08 -270.2 1137.78 -263.995C1206.49 -257.789 1274.42 -244.898 1340.38 -225.773C1406.36 -206.584 1470.3 -181.137 1531.15 -149.871C1591.99 -118.605 1649.71 -81.585 1703.3 -39.5578C1756.91 2.53508 1806.31 49.6588 1850.63 101.018C1894.95 152.378 1934.25 207.949 1967.74 266.602C2001.28 325.386 2028.98 387.187 2050.68 450.879C2026.29 388.168 1996.01 327.9 1960.25 271.191C1924.55 214.459 1883.39 161.352 1837.65 112.822C1791.88 64.2256 1741.51 20.206 1687.58 -18.4899C1633.61 -57.2516 1575.99 -90.7314 1515.89 -118.32C1455.76 -145.974 1393.08 -167.778 1329.14 -183.392C1265.11 -199.048 1199.77 -208.49 1134.23 -211.527C1068.69 -214.564 1003.06 -211.309 938.434 -201.793C873.811 -192.277 810.291 -176.457 748.878 -154.85C730.651 -148.439 711.289 -158.451 704.878 -176.678C698.468 -194.904 707.367 -214.457 725.66 -220.891C726.12 -221.059 726.515 -221.203 726.999 -221.305L727.041 -221.394Z" fill="url(#paint50_linear_225_100)" fill-opacity="0.3"/>
<path d="M-136.833 327.081C-104.295 250.865 -64.5517 177.805 -18.3039 109.333C28.0223 40.8898 80.8248 -22.8858 139.176 -80.9099C197.527 -138.934 261.397 -191.128 329.447 -236.736C397.574 -282.316 469.852 -321.232 545.074 -352.855C620.296 -384.479 698.384 -408.84 777.874 -425.581C857.443 -442.294 938.387 -451.308 1019.3 -452.426C1100.21 -453.543 1181.12 -446.842 1260.4 -432.473C1339.83 -418.046 1417.55 -395.979 1492.38 -366.965C1416.38 -392.762 1338.09 -411.305 1258.85 -422.108C1179.64 -432.989 1099.55 -436.101 1020.13 -431.509C940.627 -426.945 861.787 -414.677 785.07 -395.06C708.276 -375.472 633.497 -348.485 562.206 -314.72C490.835 -280.983 422.845 -240.418 359.553 -193.967C296.155 -147.466 237.428 -94.999 184.399 -37.437C131.37 20.125 84.0182 82.5968 43.1642 148.944C2.31031 215.292 -31.9388 285.465 -59.283 358.151C-67.4006 379.721 -91.3948 389.737 -112.965 381.62C-134.536 373.502 -145.579 350.378 -137.433 328.729C-137.233 328.18 -137.062 327.709 -136.784 327.188L-136.833 327.081Z" fill="url(#paint51_linear_225_100)" fill-opacity="0.3"/>
<path d="M1351.85 -555.034C1438.84 -534.76 1523.83 -506.248 1605.17 -469.973C1686.49 -433.609 1764.07 -389.498 1836.58 -338.42C1909.09 -287.343 1976.45 -229.315 2037.6 -165.619C2098.73 -101.834 2153.56 -32.3972 2201.21 41.5297C2248.86 115.457 2289.33 193.785 2321.98 275.028C2354.61 356.36 2379.33 440.592 2395.66 526.27C2411.99 611.947 2420.02 699.086 2419.61 785.923C2419.16 872.937 2410.28 959.562 2393.49 1044.43C2406.65 958.921 2411.68 872.349 2408.31 786.216C2405.04 700.099 2393.35 614.51 2373.61 531.064C2353.89 447.53 2326.11 366.14 2290.93 288.379C2255.76 210.53 2213.12 136.206 2163.94 66.8519C2114.77 -2.59107 2058.98 -67.1689 1997.83 -125.656C1936.61 -184.248 1869.92 -236.766 1798.9 -282.281C1727.87 -327.796 1652.7 -366.365 1574.62 -397.313C1496.55 -428.26 1415.66 -451.48 1333.38 -466.901C1308.97 -471.48 1293.85 -495.075 1298.42 -519.49C1303 -543.906 1325.48 -559.957 1349.99 -555.362C1350.61 -555.252 1351.14 -555.159 1351.74 -554.961L1351.85 -555.034Z" fill="url(#paint52_linear_225_100)" fill-opacity="0.3"/>
<path d="M976.201 -815.193C1080.35 -818.613 1184.74 -812.146 1287.35 -795.828C1389.97 -779.404 1490.72 -753.12 1587.86 -717.455C1684.99 -681.79 1778.42 -636.737 1866.56 -583.421C1954.72 -530.001 2037.48 -468.309 2113.49 -399.387C2189.51 -330.465 2258.77 -254.417 2320.09 -172.721C2381.43 -90.9201 2434.72 -3.46184 2478.99 88.1581C2523.27 179.778 2558.63 275.551 2584.38 373.534C2610.15 471.726 2626.3 572.025 2633.01 672.729C2622.02 572.401 2601.54 473.323 2571.74 377.275C2542.05 281.217 2503.04 188.294 2455.59 100.218C2408.14 12.0383 2352.26 -71.2934 2289.14 -148.3C2226 -225.41 2155.5 -296.291 2079.14 -359.596C2002.76 -423.006 1920.4 -478.935 1833.82 -526.38C1747.13 -573.921 1656.13 -612.968 1562.35 -642.812C1468.56 -672.657 1372.2 -693.423 1274.88 -704.723C1177.55 -716.024 1079.37 -717.764 982.005 -710.299C953.108 -708.087 928.941 -730.11 926.729 -759.007C924.517 -787.904 945.002 -812.779 974.004 -815C974.736 -815.064 975.364 -815.119 976.105 -815.079L976.201 -815.193Z" fill="url(#paint53_linear_225_100)" fill-opacity="0.3"/>
<path d="M425.002 -936.867C537.69 -975.407 653.937 -1003.22 771.537 -1019.67C889.182 -1036.01 1008.07 -1040.95 1126.15 -1034.43C1244.23 -1027.91 1361.39 -1009.88 1475.54 -981.065C1589.73 -952.135 1700.8 -912.365 1806.91 -862.439C1913.02 -812.513 2014.13 -752.542 2108.45 -683.745C2202.81 -614.837 2290.28 -537.058 2369.28 -451.719C2448.28 -366.379 2518.93 -273.523 2579.81 -175.04C2640.79 -76.3349 2691.96 27.8863 2732.93 135.708C2687.39 29.7293 2631.91 -71.7137 2567.25 -166.73C2502.7 -261.79 2429.01 -350.313 2347.73 -430.72C2266.41 -511.238 2177.49 -583.641 2082.77 -646.71C1988 -709.889 1887.27 -763.801 1782.65 -807.471C1677.99 -851.252 1569.29 -884.857 1458.82 -907.783C1348.19 -930.775 1235.68 -943.042 1123.21 -944.323C1010.74 -945.605 898.486 -936.102 788.342 -915.932C678.197 -895.763 570.318 -864.86 466.395 -824.167C435.551 -812.093 401.781 -828.088 389.708 -858.931C377.635 -889.774 391.711 -923.805 422.666 -935.923C423.445 -936.238 424.112 -936.508 424.936 -936.711L425.002 -936.867Z" fill="url(#paint54_linear_225_100)" fill-opacity="0.3"/>
<path d="M-1001.08 741.217C-993.886 609.117 -974.157 477.816 -942.165 349.848C-910.04 221.88 -865.651 97.3779 -809.798 -21.5257C-753.946 -140.429 -686.629 -253.601 -609.449 -359.175C-532.135 -464.748 -444.956 -562.59 -349.38 -651.102C-253.804 -739.613 -149.963 -818.793 -39.8576 -887.309C70.3815 -955.826 186.886 -1013.54 307.655 -1059.4C428.425 -1105.25 553.461 -1139.38 680.229 -1161.11C807.264 -1182.84 935.898 -1192.17 1064 -1189.5C935.898 -1186.7 808.33 -1171.77 683.562 -1144.71C558.793 -1117.79 436.956 -1078.73 320.319 -1028.47C203.548 -978.22 91.9761 -916.769 -12.3978 -845.453C-116.905 -774.138 -214.347 -692.825 -302.859 -603.247C-391.503 -513.669 -471.35 -415.694 -540.932 -311.453C-610.648 -207.079 -670.1 -96.3071 -718.221 18.9974C-766.343 134.302 -803.267 253.872 -828.327 375.708C-853.388 497.544 -866.451 621.513 -867.784 745.482C-868.184 782.273 -898.71 810.4 -935.5 810C-972.291 809.6 -1001.48 780.94 -1001.08 744.016C-1001.08 743.083 -1001.08 742.283 -1000.95 741.35L-1001.08 741.217Z" fill="url(#paint55_linear_225_100)" fill-opacity="0.3"/>
<path d="M-843.977 -377.966C-765.349 -498.494 -675.352 -611.455 -575.614 -714.605C-475.751 -817.684 -366.22 -910.827 -248.934 -992.461C-131.649 -1074.1 -6.68178 -1144.09 123.445 -1201.57C253.698 -1258.98 389.038 -1303.73 527.215 -1335.13C665.391 -1366.53 806.278 -1384.64 947.267 -1389.3C1088.38 -1393.89 1229.53 -1384.9 1368.23 -1362.41C1506.94 -1339.92 1643.29 -1304.06 1774.53 -1255.59C1906.02 -1206.96 2032.27 -1145.79 2151.5 -1073.61C2029.3 -1140.64 1901.01 -1195.96 1768.75 -1238.33C1636.57 -1280.82 1500.55 -1310.29 1363.34 -1326.39C1226.01 -1342.56 1087.48 -1345.35 950.37 -1334.94C813.133 -1324.6 677.113 -1300.99 545.012 -1264.75C412.786 -1228.57 284.28 -1179.71 162.035 -1119.35C39.5928 -1058.94 -76.6606 -986.928 -184.705 -904.479C-292.75 -822.031 -392.566 -729.473 -482.439 -628.329C-572.312 -527.185 -652.043 -417.506 -720.724 -301.448C-741.111 -267.007 -785.164 -257.113 -819.605 -277.5C-854.046 -297.887 -865.959 -340.762 -845.5 -375.329C-844.992 -376.208 -844.557 -376.961 -843.924 -377.768L-843.977 -377.966Z" fill="url(#paint56_linear_225_100)" fill-opacity="0.3"/>
<path d="M293.809 -1547.47C445.761 -1593.58 601.956 -1625.23 759.426 -1641.68C916.951 -1657.98 1075.6 -1659.03 1232.64 -1644.84C1389.69 -1630.66 1544.97 -1601.19 1695.73 -1557.48C1846.55 -1513.62 1992.69 -1455.46 2131.76 -1383.99C2270.83 -1312.53 2402.77 -1227.91 2525.25 -1131.85C2647.79 -1035.63 2760.72 -927.922 2862.02 -810.529C2963.32 -693.136 3053.14 -566.116 3129.69 -432.052C3206.35 -297.688 3269.68 -156.43 3319.26 -10.8485C3263.52 -154.186 3194.31 -291.943 3112.56 -421.563C3030.97 -551.237 2936.9 -672.624 2832.34 -783.55C2727.72 -894.627 2612.6 -995.243 2489.32 -1083.69C2365.98 -1172.29 2234.26 -1248.81 2096.89 -1311.87C1959.46 -1375.08 1816.17 -1424.92 1670.03 -1460.61C1523.69 -1496.4 1374.34 -1517.98 1224.53 -1524.92C1074.72 -1531.86 924.7 -1524.42 776.992 -1502.67C629.283 -1480.92 484.094 -1444.76 343.721 -1395.37C302.06 -1380.72 257.804 -1403.6 243.151 -1445.26C228.499 -1486.92 248.84 -1531.62 290.651 -1546.32C291.704 -1546.71 292.606 -1547.03 293.713 -1547.27L293.809 -1547.47Z" fill="url(#paint57_linear_225_100)" fill-opacity="0.3"/>
<path d="M1064 3810C2720.85 3810 4064 2466.85 4064 810C4064 -846.854 2720.85 -2190 1064 -2190C-592.854 -2190 -1936 -846.854 -1936 810C-1936 2466.85 -592.854 3810 1064 3810Z" fill="url(#paint58_radial_225_100)" fill-opacity="0.1"/>
</g>
<defs>
<filter id="filter0_d_225_100" x="0" y="0" width="2008" height="1508" filterUnits="userSpaceOnUse" color-interpolation-filters="sRGB">
<feFlood flood-opacity="0" result="BackgroundImageFix"/>
<feColorMatrix in="SourceAlpha" type="matrix" values="0 0 0 0 0 0 0 0 0 0 0 0 0 0 0 0 0 0 127 0" result="hardAlpha"/>
<feOffset dy="4"/>
<feGaussianBlur stdDeviation="2"/>
<feComposite in2="hardAlpha" operator="out"/>
<feColorMatrix type="matrix" values="0 0 0 0 0 0 0 0 0 0 0 0 0 0 0 0 0 0 0.25 0"/>
<feBlend mode="normal" in2="BackgroundImageFix" result="effect1_dropShadow_225_100"/>
<feBlend mode="normal" in="SourceGraphic" in2="effect1_dropShadow_225_100" result="shape"/>
</filter>
<radialGradient id="paint0_radial_225_100" cx="0" cy="0" r="1" gradientUnits="userSpaceOnUse" gradientTransform="translate(1064 810) scale(3000)">
<stop stop-color="#282043" stop-opacity="0.07"/>
<stop offset="1" stop-color="#282043" stop-opacity="0.96"/>
</radialGradient>
<radialGradient id="paint1_radial_225_100" cx="0" cy="0" r="1" gradientUnits="userSpaceOnUse" gradientTransform="translate(1064 810) scale(2000)">
<stop stop-color="#282043" stop-opacity="0.07"/>
<stop offset="1" stop-color="#282043" stop-opacity="0.96"/>
</radialGradient>
<radialGradient id="paint2_radial_225_100" cx="0" cy="0" r="1" gradientUnits="userSpaceOnUse" gradientTransform="translate(1064 810) scale(1800)">
<stop stop-color="#282043" stop-opacity="0.07"/>
<stop offset="1" stop-color="#282043" stop-opacity="0.96"/>
</radialGradient>
<radialGradient id="paint3_radial_225_100" cx="0" cy="0" r="1" gradientUnits="userSpaceOnUse" gradientTransform="translate(1064 810) scale(1700)">
<stop stop-color="#282043" stop-opacity="0.07"/>
<stop offset="1" stop-color="#282043" stop-opacity="0.96"/>
</radialGradient>
<radialGradient id="paint4_radial_225_100" cx="0" cy="0" r="1" gradientUnits="userSpaceOnUse" gradientTransform="translate(1064 810) scale(1651)">
<stop stop-color="#282043" stop-opacity="0.07"/>
<stop offset="1" stop-color="#282043" stop-opacity="0.96"/>
</radialGradient>
<radialGradient id="paint5_radial_225_100" cx="0" cy="0" r="1" gradientUnits="userSpaceOnUse" gradientTransform="translate(1064 810) scale(1450)">
<stop stop-color="#282043" stop-opacity="0.07"/>
<stop offset="1" stop-color="#282043" stop-opacity="0.96"/>
</radialGradient>
<radialGradient id="paint6_radial_225_100" cx="0" cy="0" r="1" gradientUnits="userSpaceOnUse" gradientTransform="translate(1064 810) scale(1250)">
<stop stop-color="#282043" stop-opacity="0.07"/>
<stop offset="1" stop-color="#282043" stop-opacity="0.96"/>
</radialGradient>
<radialGradient id="paint7_radial_225_100" cx="0" cy="0" r="1" gradientUnits="userSpaceOnUse" gradientTransform="translate(1064 810) scale(1175)">
<stop stop-color="#282043" stop-opacity="0.07"/>
<stop offset="1" stop-color="#282043" stop-opacity="0.96"/>
</radialGradient>
<radialGradient id="paint8_radial_225_100" cx="0" cy="0" r="1" gradientUnits="userSpaceOnUse" gradientTransform="translate(1064 810) scale(900)">
<stop stop-color="#282043" stop-opacity="0.07"/>
<stop offset="1" stop-color="#282043" stop-opacity="0.96"/>
</radialGradient>
<radialGradient id="paint9_radial_225_100" cx="0" cy="0" r="1" gradientUnits="userSpaceOnUse" gradientTransform="translate(1064 810) scale(750)">
<stop stop-color="#282043" stop-opacity="0.07"/>
<stop offset="1" stop-color="#282043" stop-opacity="0.96"/>
</radialGradient>
<radialGradient id="paint10_radial_225_100" cx="0" cy="0" r="1" gradientUnits="userSpaceOnUse" gradientTransform="translate(1064 810) scale(500)">
<stop stop-color="#282043" stop-opacity="0.07"/>
<stop offset="1" stop-color="#282043" stop-opacity="0.96"/>
</radialGradient>
<radialGradient id="paint11_radial_225_100" cx="0" cy="0" r="1" gradientUnits="userSpaceOnUse" gradientTransform="translate(1064 810) scale(380)">
<stop stop-color="#282043" stop-opacity="0.07"/>
<stop offset="1" stop-color="#282043" stop-opacity="0.96"/>
</radialGradient>
<radialGradient id="paint12_radial_225_100" cx="0" cy="0" r="1" gradientUnits="userSpaceOnUse" gradientTransform="translate(1064 810) scale(250)">
<stop stop-color="#282043" stop-opacity="0.07"/>
<stop offset="1" stop-color="#282043" stop-opacity="0.96"/>
</radialGradient>
<linearGradient id="paint13_linear_225_100" x1="979.428" y1="840.782" x2="1043.04" y2="1015.56" gradientUnits="userSpaceOnUse">
<stop stop-color="#E6DCFF" stop-opacity="0.08"/>
<stop offset="1" stop-color="#C2C9F5" stop-opacity="0.42"/>
</linearGradient>
<linearGradient id="paint14_linear_225_100" x1="1012.7" y1="950.954" x2="1304" y2="1056.98" gradientUnits="userSpaceOnUse">
<stop stop-color="#E6DCFF" stop-opacity="0.08"/>
<stop offset="1" stop-color="#C2C9F5" stop-opacity="0.42"/>
</linearGradient>
<linearGradient id="paint15_linear_225_100" x1="920.367" y1="930.523" x2="1169.45" y2="1227.36" gradientUnits="userSpaceOnUse">
<stop stop-color="#E6DCFF" stop-opacity="0.08"/>
<stop offset="1" stop-color="#C2C9F5" stop-opacity="0.42"/>
</linearGradient>
<linearGradient id="paint16_linear_225_100" x1="1103.07" y1="1031.58" x2="1561.01" y2="950.835" gradientUnits="userSpaceOnUse">
<stop stop-color="#E6DCFF" stop-opacity="0.08"/>
<stop offset="1" stop-color="#C2C9F5" stop-opacity="0.42"/>
</linearGradient>
<linearGradient id="paint17_linear_225_100" x1="1166.61" y1="1091.91" x2="1749.22" y2="879.855" gradientUnits="userSpaceOnUse">
<stop stop-color="#E6DCFF" stop-opacity="0.08"/>
<stop offset="1" stop-color="#C2C9F5" stop-opacity="0.42"/>
</linearGradient>
<linearGradient id="paint18_linear_225_100" x1="876.5" y1="1134.76" x2="1547.67" y2="1522.26" gradientUnits="userSpaceOnUse">
<stop stop-color="#E6DCFF" stop-opacity="0.08"/>
<stop offset="1" stop-color="#C2C9F5" stop-opacity="0.42"/>
</linearGradient>
<linearGradient id="paint19_linear_225_100" x1="641.138" y1="963.909" x2="959.217" y2="1837.82" gradientUnits="userSpaceOnUse">
<stop stop-color="#E6DCFF" stop-opacity="0.08"/>
<stop offset="1" stop-color="#C2C9F5" stop-opacity="0.42"/>
</linearGradient>
<linearGradient id="paint20_linear_225_100" x1="884.439" y1="1303.34" x2="1904.01" y2="1674.43" gradientUnits="userSpaceOnUse">
<stop stop-color="#E6DCFF" stop-opacity="0.08"/>
<stop offset="1" stop-color="#C2C9F5" stop-opacity="0.42"/>
</linearGradient>
<linearGradient id="paint21_linear_225_100" x1="1377.12" y1="1352.35" x2="2497.98" y2="705.223" gradientUnits="userSpaceOnUse">
<stop stop-color="#E6DCFF" stop-opacity="0.08"/>
<stop offset="1" stop-color="#C2C9F5" stop-opacity="0.42"/>
</linearGradient>
<linearGradient id="paint22_linear_225_100" x1="546.92" y1="1243.88" x2="1443.61" y2="2312.51" gradientUnits="userSpaceOnUse">
<stop stop-color="#E6DCFF" stop-opacity="0.08"/>
<stop offset="1" stop-color="#C2C9F5" stop-opacity="0.42"/>
</linearGradient>
<linearGradient id="paint23_linear_225_100" x1="612.308" y1="1455.08" x2="1945.48" y2="2388.58" gradientUnits="userSpaceOnUse">
<stop stop-color="#E6DCFF" stop-opacity="0.08"/>
<stop offset="1" stop-color="#C2C9F5" stop-opacity="0.42"/>
</linearGradient>
<linearGradient id="paint24_linear_225_100" x1="785.884" y1="1665.95" x2="2554.85" y2="2240.72" gradientUnits="userSpaceOnUse">
<stop stop-color="#E6DCFF" stop-opacity="0.08"/>
<stop offset="1" stop-color="#C2C9F5" stop-opacity="0.42"/>
</linearGradient>
<linearGradient id="paint25_linear_225_100" x1="1829.85" y1="1452.63" x2="3157.95" y2="-130.136" gradientUnits="userSpaceOnUse">
<stop stop-color="#E6DCFF" stop-opacity="0.08"/>
<stop offset="1" stop-color="#C2C9F5" stop-opacity="0.42"/>
</linearGradient>
<linearGradient id="paint26_linear_225_100" x1="1435.95" y1="1831.92" x2="3547.91" y2="1063.23" gradientUnits="userSpaceOnUse">
<stop stop-color="#E6DCFF" stop-opacity="0.08"/>
<stop offset="1" stop-color="#C2C9F5" stop-opacity="0.42"/>
</linearGradient>
<linearGradient id="paint27_linear_225_100" x1="653.576" y1="1937.63" x2="2984.01" y2="2785.84" gradientUnits="userSpaceOnUse">
<stop stop-color="#E6DCFF" stop-opacity="0.08"/>
<stop offset="1" stop-color="#C2C9F5" stop-opacity="0.42"/>
</linearGradient>
<linearGradient id="paint28_linear_225_100" x1="1064" y1="720" x2="878" y2="720" gradientUnits="userSpaceOnUse">
<stop stop-color="#E6DCFF" stop-opacity="0.08"/>
<stop offset="1" stop-color="#C2C9F5" stop-opacity="0.42"/>
</linearGradient>
<linearGradient id="paint29_linear_225_100" x1="949.093" y1="713.581" x2="749.829" y2="951.055" gradientUnits="userSpaceOnUse">
<stop stop-color="#E6DCFF" stop-opacity="0.08"/>
<stop offset="1" stop-color="#C2C9F5" stop-opacity="0.42"/>
</linearGradient>
<linearGradient id="paint30_linear_225_100" x1="999.871" y1="633.807" x2="635.74" y2="766.34" gradientUnits="userSpaceOnUse">
<stop stop-color="#E6DCFF" stop-opacity="0.08"/>
<stop offset="1" stop-color="#C2C9F5" stop-opacity="0.42"/>
</linearGradient>
<linearGradient id="paint31_linear_225_100" x1="842.418" y1="770.929" x2="761.672" y2="1228.86" gradientUnits="userSpaceOnUse">
<stop stop-color="#E6DCFF" stop-opacity="0.08"/>
<stop offset="1" stop-color="#C2C9F5" stop-opacity="0.42"/>
</linearGradient>
<linearGradient id="paint32_linear_225_100" x1="764" y1="810" x2="764" y2="1430" gradientUnits="userSpaceOnUse">
<stop stop-color="#E6DCFF" stop-opacity="0.08"/>
<stop offset="1" stop-color="#C2C9F5" stop-opacity="0.42"/>
</linearGradient>
<linearGradient id="paint33_linear_225_100" x1="822.955" y1="522.733" x2="229.27" y2="1020.89" gradientUnits="userSpaceOnUse">
<stop stop-color="#E6DCFF" stop-opacity="0.08"/>
<stop offset="1" stop-color="#C2C9F5" stop-opacity="0.42"/>
</linearGradient>
<linearGradient id="paint34_linear_225_100" x1="1064" y1="360" x2="134" y2="360" gradientUnits="userSpaceOnUse">
<stop stop-color="#E6DCFF" stop-opacity="0.08"/>
<stop offset="1" stop-color="#C2C9F5" stop-opacity="0.42"/>
</linearGradient>
<linearGradient id="paint35_linear_225_100" x1="661.827" y1="472.536" x2="-35.5978" y2="1303.69" gradientUnits="userSpaceOnUse">
<stop stop-color="#E6DCFF" stop-opacity="0.08"/>
<stop offset="1" stop-color="#C2C9F5" stop-opacity="0.42"/>
</linearGradient>
<linearGradient id="paint36_linear_225_100" x1="447.264" y1="918.747" x2="672.008" y2="2193.33" gradientUnits="userSpaceOnUse">
<stop stop-color="#E6DCFF" stop-opacity="0.08"/>
<stop offset="1" stop-color="#C2C9F5" stop-opacity="0.42"/>
</linearGradient>
<linearGradient id="paint37_linear_225_100" x1="833.136" y1="175.707" x2="-477.735" y2="652.825" gradientUnits="userSpaceOnUse">
<stop stop-color="#E6DCFF" stop-opacity="0.08"/>
<stop offset="1" stop-color="#C2C9F5" stop-opacity="0.42"/>
</linearGradient>
<linearGradient id="paint38_linear_225_100" x1="612.308" y1="164.917" x2="-720.862" y2="1098.41" gradientUnits="userSpaceOnUse">
<stop stop-color="#E6DCFF" stop-opacity="0.08"/>
<stop offset="1" stop-color="#C2C9F5" stop-opacity="0.42"/>
</linearGradient>
<linearGradient id="paint39_linear_225_100" x1="354.79" y1="255.904" x2="-790.34" y2="1721.6" gradientUnits="userSpaceOnUse">
<stop stop-color="#E6DCFF" stop-opacity="0.08"/>
<stop offset="1" stop-color="#C2C9F5" stop-opacity="0.42"/>
</linearGradient>
<linearGradient id="paint40_linear_225_100" x1="198.191" y1="1309.87" x2="1231.27" y2="3099.21" gradientUnits="userSpaceOnUse">
<stop stop-color="#E6DCFF" stop-opacity="0.08"/>
<stop offset="1" stop-color="#C2C9F5" stop-opacity="0.42"/>
</linearGradient>
<linearGradient id="paint41_linear_225_100" x1="-23.5002" y1="810" x2="-23.5002" y2="3057.5" gradientUnits="userSpaceOnUse">
<stop stop-color="#E6DCFF" stop-opacity="0.08"/>
<stop offset="1" stop-color="#C2C9F5" stop-opacity="0.42"/>
</linearGradient>
<linearGradient id="paint42_linear_225_100" x1="144.747" y1="38.6546" x2="-1449.37" y2="1938.44" gradientUnits="userSpaceOnUse">
<stop stop-color="#E6DCFF" stop-opacity="0.08"/>
<stop offset="1" stop-color="#C2C9F5" stop-opacity="0.42"/>
</linearGradient>
<linearGradient id="paint43_linear_225_100" x1="1141.94" y1="855" x2="1234.94" y2="693.919" gradientUnits="userSpaceOnUse">
<stop stop-color="#E6DCFF" stop-opacity="0.08"/>
<stop offset="1" stop-color="#C2C9F5" stop-opacity="0.42"/>
</linearGradient>
<linearGradient id="paint44_linear_225_100" x1="1204.95" y1="758.697" x2="1098.93" y2="467.392" gradientUnits="userSpaceOnUse">
<stop stop-color="#E6DCFF" stop-opacity="0.08"/>
<stop offset="1" stop-color="#C2C9F5" stop-opacity="0.42"/>
</linearGradient>
<linearGradient id="paint45_linear_225_100" x1="1248.65" y1="842.559" x2="1315.94" y2="460.946" gradientUnits="userSpaceOnUse">
<stop stop-color="#E6DCFF" stop-opacity="0.08"/>
<stop offset="1" stop-color="#C2C9F5" stop-opacity="0.42"/>
</linearGradient>
<linearGradient id="paint46_linear_225_100" x1="1208.63" y1="637.64" x2="852.416" y2="338.744" gradientUnits="userSpaceOnUse">
<stop stop-color="#E6DCFF" stop-opacity="0.08"/>
<stop offset="1" stop-color="#C2C9F5" stop-opacity="0.42"/>
</linearGradient>
<linearGradient id="paint47_linear_225_100" x1="1214" y1="550.192" x2="677.064" y2="240.192" gradientUnits="userSpaceOnUse">
<stop stop-color="#E6DCFF" stop-opacity="0.08"/>
<stop offset="1" stop-color="#C2C9F5" stop-opacity="0.42"/>
</linearGradient>
<linearGradient id="paint48_linear_225_100" x1="1433.3" y1="744.882" x2="1298.73" y2="-18.3443" gradientUnits="userSpaceOnUse">
<stop stop-color="#E6DCFF" stop-opacity="0.08"/>
<stop offset="1" stop-color="#C2C9F5" stop-opacity="0.42"/>
</linearGradient>
<linearGradient id="paint49_linear_225_100" x1="1453.71" y1="1035" x2="1918.71" y2="229.596" gradientUnits="userSpaceOnUse">
<stop stop-color="#E6DCFF" stop-opacity="0.08"/>
<stop offset="1" stop-color="#C2C9F5" stop-opacity="0.42"/>
</linearGradient>
<linearGradient id="paint50_linear_225_100" x1="1557.34" y1="630.439" x2="1186.25" y2="-389.127" gradientUnits="userSpaceOnUse">
<stop stop-color="#E6DCFF" stop-opacity="0.08"/>
<stop offset="1" stop-color="#C2C9F5" stop-opacity="0.42"/>
</linearGradient>
<linearGradient id="paint51_linear_225_100" x1="1278.19" y1="221.517" x2="61.9927" y2="-221.142" gradientUnits="userSpaceOnUse">
<stop stop-color="#E6DCFF" stop-opacity="0.08"/>
<stop offset="1" stop-color="#C2C9F5" stop-opacity="0.42"/>
</linearGradient>
<linearGradient id="paint52_linear_225_100" x1="1728.74" y1="927.213" x2="1970.98" y2="-446.594" gradientUnits="userSpaceOnUse">
<stop stop-color="#E6DCFF" stop-opacity="0.08"/>
<stop offset="1" stop-color="#C2C9F5" stop-opacity="0.42"/>
</linearGradient>
<linearGradient id="paint53_linear_225_100" x1="1848.5" y1="741.365" x2="1706.66" y2="-879.942" gradientUnits="userSpaceOnUse">
<stop stop-color="#E6DCFF" stop-opacity="0.08"/>
<stop offset="1" stop-color="#C2C9F5" stop-opacity="0.42"/>
</linearGradient>
<linearGradient id="paint54_linear_225_100" x1="1898.47" y1="472.854" x2="1201.7" y2="-1251.71" gradientUnits="userSpaceOnUse">
<stop stop-color="#E6DCFF" stop-opacity="0.08"/>
<stop offset="1" stop-color="#C2C9F5" stop-opacity="0.42"/>
</linearGradient>
<linearGradient id="paint55_linear_225_100" x1="1064" y1="-189.75" x2="-1002.15" y2="-189.75" gradientUnits="userSpaceOnUse">
<stop stop-color="#E6DCFF" stop-opacity="0.08"/>
<stop offset="1" stop-color="#C2C9F5" stop-opacity="0.42"/>
</linearGradient>
<linearGradient id="paint56_linear_225_100" x1="1607.75" y1="-131.803" x2="-338.642" y2="-1255.55" gradientUnits="userSpaceOnUse">
<stop stop-color="#E6DCFF" stop-opacity="0.08"/>
<stop offset="1" stop-color="#C2C9F5" stop-opacity="0.42"/>
</linearGradient>
<linearGradient id="paint57_linear_225_100" x1="2191.63" y1="399.576" x2="1343.42" y2="-1930.86" gradientUnits="userSpaceOnUse">
<stop stop-color="#E6DCFF" stop-opacity="0.08"/>
<stop offset="1" stop-color="#C2C9F5" stop-opacity="0.42"/>
</linearGradient>
<radialGradient id="paint58_radial_225_100" cx="0" cy="0" r="1" gradientUnits="userSpaceOnUse" gradientTransform="translate(1064 810) scale(3000)">
<stop stop-color="#2B264F"/>
<stop offset="1" stop-color="#282043"/>
</radialGradient>
<clipPath id="clip0_225_100">
<rect width="2000" height="1500" fill="white" transform="translate(4)"/>
</clipPath>
</defs>
</svg>
