<svg width="255" height="255" viewBox="0 0 255 255" fill="none" xmlns="http://www.w3.org/2000/svg">
<path d="M74.5362 48.9796L42.6612 17.1046C41.5222 15.9656 39.8089 15.6239 38.3192 16.241C36.8301 16.8576 35.8594 18.3104 35.8594 19.9221L35.8594 47.8127C35.8594 48.8695 36.2792 49.8831 37.0263 50.6301L68.9013 82.5052C69.6633 83.2677 70.6823 83.6721 71.7197 83.6721C72.2327 83.6721 72.7507 83.573 73.2438 83.3688C74.7324 82.7522 75.7031 81.2994 75.7031 79.6877L75.7031 51.7971C75.7031 50.7402 75.2833 49.7267 74.5362 48.9796Z" fill="#72D896"/>
<path d="M74.5363 76.87L42.6612 44.995C41.9142 44.248 40.9006 43.8281 39.8438 43.8281L11.9531 43.8281C10.3415 43.8281 8.88865 44.7988 8.27207 46.2875C7.65549 47.7766 7.99615 49.4899 9.13568 50.6295L41.0107 82.5045C41.7578 83.2515 42.7713 83.6714 43.8282 83.6714L71.7188 83.6714C73.3305 83.6714 74.7833 82.7007 75.3999 81.212C76.0165 79.7234 75.6758 78.0096 74.5363 76.87Z" fill="#72D896"/>
<path d="M39.8438 15.9375C37.6434 15.9375 35.8594 17.7215 35.8594 19.9219L35.8594 43.8281L11.9531 43.8281C9.75275 43.8281 7.96875 45.6121 7.96875 47.8125C7.96875 50.0129 9.75275 51.7969 11.9531 51.7969L39.8438 51.7969C42.0441 51.7969 43.8281 50.0129 43.8281 47.8125L43.8281 19.9219C43.8281 17.7215 42.0441 15.9375 39.8438 15.9375Z" fill="#90E0AC"/>
<path d="M159.375 63.75L143.438 63.75L143.438 239.062L159.375 239.062C207.786 239.062 247.031 199.817 247.031 151.406C247.031 102.995 207.786 63.75 159.375 63.75Z" fill="#6C35F9"/>
<path d="M143.438 239.062C191.849 239.062 231.094 199.817 231.094 151.406C231.094 102.995 191.849 63.75 143.438 63.75C95.0263 63.75 55.7813 102.995 55.7813 151.406C55.7813 199.817 95.0263 239.062 143.438 239.062Z" fill="#8353FC"/>
<path d="M143.438 215.156C108.285 215.156 79.6875 186.558 79.6875 151.406C79.6875 116.255 108.285 87.6562 143.438 87.6562C178.59 87.6562 207.188 116.255 207.188 151.406C207.188 186.558 178.59 215.156 143.438 215.156ZM143.438 111.562C121.468 111.562 103.594 129.436 103.594 151.406C103.594 173.376 121.468 191.25 143.438 191.25C165.407 191.25 183.281 173.376 183.281 151.406C183.281 129.436 165.407 111.562 143.438 111.562Z" fill="#E9E0FF"/>
<path d="M143.438 167.344C152.24 167.344 159.375 160.208 159.375 151.406C159.375 142.604 152.24 135.469 143.438 135.469C134.635 135.469 127.5 142.604 127.5 151.406C127.5 160.208 134.635 167.344 143.438 167.344Z" fill="#E9E0FF"/>
<path d="M143.438 155.391C142.418 155.391 141.398 155.002 140.62 154.224L33.0419 46.6456C31.4855 45.0897 31.4855 42.5666 33.0419 41.0107C34.5978 39.4548 37.1204 39.4548 38.6763 41.0107L146.254 148.589C147.811 150.145 147.811 152.668 146.254 154.224C145.477 155.002 144.457 155.391 143.438 155.391Z" fill="#463C4B"/>
<path d="M35.8594 47.8125C38.0599 47.8125 39.8438 46.0286 39.8438 43.8281C39.8438 41.6276 38.0599 39.8437 35.8594 39.8437C33.6589 39.8437 31.875 41.6276 31.875 43.8281C31.875 46.0286 33.6589 47.8125 35.8594 47.8125Z" fill="#555A6E"/>
</svg>
