<svg xmlns="http://www.w3.org/2000/svg" enable-background="new 0 0 24 24" viewBox="0 0 24 24" width="256" height="256"><path fill="#d8d8ff" d="m15.878 9.536.658-.657A4.968 4.968 0 0 0 18 5.343V2a1 1 0 0 0-1-1H7a1 1 0 0 0-1 1v3.343A4.97 4.97 0 0 0 7.465 8.88l.657.655c.564.562.88 1.326.878 2.122v1.01a3.021 3.021 0 0 1-.6 1.8L7 16.334a5.03 5.03 0 0 0-1 2.999V22a1 1 0 0 0 1 1h2a1 1 0 0 1-1-1v-2.667c0-.568.097-1.132.286-1.667A1 1 0 0 1 9.23 17h5.542a1 1 0 0 1 .943.666c.19.535.286 1.1.286 1.667V22a1 1 0 0 1-1 1h2a1 1 0 0 0 1-1v-2.667a5.028 5.028 0 0 0-1-2.999l-1.4-1.867a3.019 3.019 0 0 1-.6-1.8v-1.01a2.98 2.98 0 0 1 .878-2.12zm-1.342-.657-.658.657A2.995 2.995 0 0 0 13 11.655V12h-2v-.343c0-.797-.317-1.562-.882-2.125l-.653-.652A4.95 4.95 0 0 1 8.065 6h7.87a4.946 4.946 0 0 1-1.4 2.879z" class="colord8d8ff svgShape"></path><path fill="#b2b1ff" d="M13 12v-.345c0-.795.316-1.557.878-2.119l.658-.657A4.946 4.946 0 0 0 15.936 6H8.064a4.95 4.95 0 0 0 1.4 2.88l.654.652c.565.563.882 1.328.882 2.125V12h2z" class="colorb2b1ff svgShape"></path><path fill="#6563ff" d="M19 3H5a1 1 0 0 1 0-2h14a1 1 0 0 1 0 2z" class="color6563ff svgShape"></path><path fill="#b2b1ff" d="M15 23H9a1 1 0 0 1-1-1v-2.667c0-.568.097-1.132.286-1.667A1 1 0 0 1 9.23 17h5.542a1 1 0 0 1 .943.666c.19.535.286 1.1.286 1.667V22a1 1 0 0 1-1 1z" class="colorb2b1ff svgShape"></path><path fill="#6563ff" d="M19 23H5a1 1 0 0 1 0-2h14a1 1 0 0 1 0 2z" class="color6563ff svgShape"></path></svg>